<svg xmlns="http://www.w3.org/2000/svg" width="1180" height="760" viewBox="0 0 1180 760">
<rect x="0" y="0" width="100%" height="100%" fill="#0b1220"/>
<text x="590.0" y="48" text-anchor="middle" font-family="Arial" font-size="34" fill="#f1f5f9">Binary Feature Mean Rates (describe3 mean row)</text>
<text x="26" y="365.0" transform="rotate(-90 26 365.0)" text-anchor="middle" font-family="Arial" font-size="18" fill="#94a3b8">Rate (%)</text>
<line x1="90" y1="640.0" x2="1140" y2="640.0" stroke="#1f2937" stroke-width="1"/>
<text x="78" y="646.0" text-anchor="end" font-family="Arial" font-size="14" fill="#94a3b8">0.0</text>
<line x1="90" y1="530.0" x2="1140" y2="530.0" stroke="#1f2937" stroke-width="1"/>
<text x="78" y="536.0" text-anchor="end" font-family="Arial" font-size="14" fill="#94a3b8">10.0</text>
<line x1="90" y1="420.0" x2="1140" y2="420.0" stroke="#1f2937" stroke-width="1"/>
<text x="78" y="426.0" text-anchor="end" font-family="Arial" font-size="14" fill="#94a3b8">20.0</text>
<line x1="90" y1="310.0" x2="1140" y2="310.0" stroke="#1f2937" stroke-width="1"/>
<text x="78" y="316.0" text-anchor="end" font-family="Arial" font-size="14" fill="#94a3b8">30.0</text>
<line x1="90" y1="200.0" x2="1140" y2="200.0" stroke="#1f2937" stroke-width="1"/>
<text x="78" y="206.0" text-anchor="end" font-family="Arial" font-size="14" fill="#94a3b8">40.0</text>
<line x1="90" y1="90.0" x2="1140" y2="90.0" stroke="#1f2937" stroke-width="1"/>
<text x="78" y="96.0" text-anchor="end" font-family="Arial" font-size="14" fill="#94a3b8">49.9</text>
<rect x="106.0" y="563.6" width="131.7" height="76.4" fill="#38bdf8" rx="4"/>
<text x="171.9" y="555.6" text-anchor="middle" font-family="Arial" font-size="13" fill="#e2e8f0">6.9</text>
<text x="171.9" y="664.0" text-anchor="middle" font-family="Arial" font-size="14" fill="#cbd5e1">park</text>
<rect x="253.7" y="140.0" width="131.7" height="500.0" fill="#22d3ee" rx="4"/>
<text x="319.6" y="132.0" text-anchor="middle" font-family="Arial" font-size="13" fill="#e2e8f0">45.4</text>
<text x="319.6" y="664.0" text-anchor="middle" font-family="Arial" font-size="14" fill="#cbd5e1">light</text>
<rect x="401.4" y="550.8" width="131.7" height="89.2" fill="#38bdf8" rx="4"/>
<text x="467.3" y="542.8" text-anchor="middle" font-family="Arial" font-size="13" fill="#e2e8f0">8.1</text>
<text x="467.3" y="664.0" text-anchor="middle" font-family="Arial" font-size="14" fill="#cbd5e1">p_lot</text>
<rect x="549.1" y="598.4" width="131.7" height="41.6" fill="#22d3ee" rx="4"/>
<text x="615.0" y="590.4" text-anchor="middle" font-family="Arial" font-size="13" fill="#e2e8f0">3.8</text>
<text x="615.0" y="664.0" text-anchor="middle" font-family="Arial" font-size="14" fill="#cbd5e1">water</text>
<rect x="696.9" y="567.6" width="131.7" height="72.4" fill="#38bdf8" rx="4"/>
<text x="762.7" y="559.6" text-anchor="middle" font-family="Arial" font-size="13" fill="#e2e8f0">6.6</text>
<text x="762.7" y="664.0" text-anchor="middle" font-family="Arial" font-size="14" fill="#cbd5e1">business</text>
<rect x="844.6" y="382.7" width="131.7" height="257.3" fill="#22d3ee" rx="4"/>
<text x="910.4" y="374.7" text-anchor="middle" font-family="Arial" font-size="13" fill="#e2e8f0">23.4</text>
<text x="910.4" y="664.0" text-anchor="middle" font-family="Arial" font-size="14" fill="#cbd5e1">transport</text>
<rect x="992.3" y="347.4" width="131.7" height="292.6" fill="#38bdf8" rx="4"/>
<text x="1058.1" y="339.4" text-anchor="middle" font-family="Arial" font-size="13" fill="#e2e8f0">26.6</text>
<text x="1058.1" y="664.0" text-anchor="middle" font-family="Arial" font-size="14" fill="#cbd5e1">l_tax</text>
</svg>
