<svg xmlns="http://www.w3.org/2000/svg" width="1180" height="760" viewBox="0 0 1180 760">
<rect x="0" y="0" width="100%" height="100%" fill="#0b1220"/>
<text x="590.0" y="48" text-anchor="middle" font-family="Arial" font-size="34" fill="#f1f5f9">Train/Test Split Size (from doc/DataSet/training)</text>
<text x="26" y="365.0" transform="rotate(-90 26 365.0)" text-anchor="middle" font-family="Arial" font-size="18" fill="#94a3b8">Row Count</text>
<line x1="90" y1="640.0" x2="1140" y2="640.0" stroke="#1f2937" stroke-width="1"/>
<text x="78" y="646.0" text-anchor="end" font-family="Arial" font-size="14" fill="#94a3b8">0</text>
<line x1="90" y1="530.0" x2="1140" y2="530.0" stroke="#1f2937" stroke-width="1"/>
<text x="78" y="536.0" text-anchor="end" font-family="Arial" font-size="14" fill="#94a3b8">9640</text>
<line x1="90" y1="420.0" x2="1140" y2="420.0" stroke="#1f2937" stroke-width="1"/>
<text x="78" y="426.0" text-anchor="end" font-family="Arial" font-size="14" fill="#94a3b8">19279</text>
<line x1="90" y1="310.0" x2="1140" y2="310.0" stroke="#1f2937" stroke-width="1"/>
<text x="78" y="316.0" text-anchor="end" font-family="Arial" font-size="14" fill="#94a3b8">28919</text>
<line x1="90" y1="200.0" x2="1140" y2="200.0" stroke="#1f2937" stroke-width="1"/>
<text x="78" y="206.0" text-anchor="end" font-family="Arial" font-size="14" fill="#94a3b8">38559</text>
<line x1="90" y1="90.0" x2="1140" y2="90.0" stroke="#1f2937" stroke-width="1"/>
<text x="78" y="96.0" text-anchor="end" font-family="Arial" font-size="14" fill="#94a3b8">48199</text>
<rect x="106.0" y="140.0" width="501.0" height="500.0" fill="#38bdf8" rx="4"/>
<text x="356.5" y="132.0" text-anchor="middle" font-family="Arial" font-size="13" fill="#e2e8f0">43817</text>
<text x="356.5" y="664.0" text-anchor="middle" font-family="Arial" font-size="14" fill="#cbd5e1">Train</text>
<rect x="623.0" y="425.7" width="501.0" height="214.3" fill="#22d3ee" rx="4"/>
<text x="873.5" y="417.7" text-anchor="middle" font-family="Arial" font-size="13" fill="#e2e8f0">18780</text>
<text x="873.5" y="664.0" text-anchor="middle" font-family="Arial" font-size="14" fill="#cbd5e1">Test</text>
</svg>
